,
Brought to you by  http://www.scenetime.com/signup.php
 
 Hottest scene tracker on the net !!!   
 
No fake torrents from scenebalance 
shame on those who comment fake before downloading my torrents

    seed back for speed


 



...................................NFO:.................................................
                   _..._                          _..._    
                .-'_..._''.                    .-'_..._''.  
        .--.  .' .'      '.\                 .' .'      '.\
        |__| / .'                           / .'            
    .|  .--.. '               .|           . '              
  .' |_ |  || |             .' |_     __   | |              
.'     ||  || |           .'     | .:--.'. | |              
'--.  .-'|  |. '          '--.  .-'/ |   \ |. '              
  |  |  |  | \ '.          .|  |  `" __ | | \ '.          .
  |  |  |__|  '. `._____.-'/|  |   .'.''| |  '. `._____.-'/
  |  '.'        `-.______ / |  '.'/ /   | |_   `-.______ /  
  |   /                  `  |   / \ \._,\ '/            `  
  `'-'                      `'-'   `--'  `"                

_____ _____  ____   ____  ____  __  _  _____  ____
| ()_)| () )| ===| (_ (_`| ===||  \| ||_   _|(_ (_`
|_|   |_|\_\|____|.__)__)|____||_|\__|  |_| .__)__)



In From The Night 2006 DVDRip (REQ) TiCTaC

 
http://www.imdb.com/title/tt0433575/


After ten years without contact, Bobby Miller (16) shows up famished, exhausted and nightmare-ridden at would be-author Victoria 'Vicki' Miller's home. He ran away from his wicked, selfish mother Priscilla and spineless dad, Vicky's brother Rob. Their late dad took Bobby away as a neglected baby to be raised with Vicky's sister Ruth, her husband and their kids, until dad's death allowed his Bobby's dad Rob to file successfully to regain custody. Soon after, Victoria has to choose between concentrating on her novelist career, aided by brilliant publishing adviser Aiden Byrnes, or help doing the right thing for Bobby, and blood proves strong enough to engage lawyer-friend Ned Alvarez to fight for emancipation. But gaining that doesn't solve everything for the uneducated though bright knave, who soon makes makes dubious punker 'friends' and harbors a dark trauma




    5.6/10  





Edit
Cast

Marcia Gay Harden 	Marcia Gay Harden 	... 	
Vicki Miller
Taylor Handley 	Taylor Handley 	... 	
Bobby
Thomas Gibson 	Thomas Gibson 	... 	
Aiden Byrnes
Kate Nelligan 	Kate Nelligan 	... 	
Vera Miller
Regina Taylor 	Regina Taylor 	... 	
Dr. A. Gardner
Mackenzie Astin 	Mackenzie Astin 	... 	
Rob Miller
Roxanne Hart 	Roxanne Hart 	... 	
Ruth Miller Hammond
Kevin Kilner 	Kevin Kilner 	... 	
Chet Hammond
Mageina Tovah 	Mageina Tovah 	... 	
Priscilla Miller
Nicholas Ballas 	Nicholas Ballas 	... 	
Abe Nolan
Cody McMains 	Cody McMains 	... 	
Tristan
Miguel Prez 	Miguel Prez 	... 	
Ned Alvarez
Lauren Tom 	Lauren Tom 	... 	
Dr. Myra Chen
Ryan Donowho 	Ryan Donowho 	... 	
Snakeman
Mary Evans 	Mary Evans 	... 	



Genres:
Drama

USA
Language:
English
Release Date:
23 April 2006 (USA) 

Runtime:
97 min

Color


General
Complete name                    : G:\In From The Night 2006 DVDRip (REQ) TiCTaC\In From The Night 2006 DVDRip (REQ) TiCTaC.avi
Format                           : AVI
Format/Info                      : Audio Video Interleave
File size                        : 1.11 GiB
Duration                         : 1h 33mn
Overall bit rate                 : 1 704 Kbps
Writing application              : Lavf52.13.0
Writing library                  : VirtualDub build 32842/release

Video
ID                               : 0
Format                           : MPEG-4 Visual
Format profile                   : Simple@L1
Format settings, BVOP            : No
Format settings, QPel            : No
Format settings, GMC             : No warppoints
Format settings, Matrix          : Default (H.263)
Codec ID                         : XVID
Codec ID/Hint                    : XviD
Duration                         : 1h 33mn
Bit rate                         : 1 500 Kbps
Width                            : 720 pixels
Height                           : 432 pixels
Display aspect ratio             : 16:9
Frame rate                       : 25.000 fps
Resolution                       : 8 bits
Colorimetry                      : 4:2:0
Scan type                        : Progressive
Bits/(Pixel*Frame)               : 0.193
Stream size                      : 1 003 MiB (88%)
Writing library                  : Lavc51.54.0

Audio
ID                               : 1
Format                           : MPEG Audio
Format version                   : Version 1
Format profile                   : Layer 3
Mode                             : Joint stereo
Format_Settings_ModeExtension    : MS Stereo
Codec ID                         : 55
Codec ID/Hint                    : MP3
Duration                         : 1h 33mn
Bit rate mode                    : Constant
Bit rate                         : 192 Kbps
Channel(s)                       : 2 channels
Sampling rate                    : 44.1 KHz
Stream size                      : 128 MiB (11%)
Alignment                        : Aligned on interleaves
Interleave, duration             : 26 ms (0.65 video frame)
Interleave, preload duration     : 522 ms
Writing library                  : LAME3.98 (beta)